<?xml version="1.0" encoding="UTF-8" standalone="no"?>
<!-- Created with Inkscape (http://www.inkscape.org/) -->

<svg
   width="297mm"
   height="210mm"
   viewBox="0 0 1122.5197 793.70081"
   version="1.1"
   id="svg1"
   xml:space="preserve"
   inkscape:version="1.3.2 (091e20e, 2023-11-25, custom)"
   sodipodi:docname="mountain.svg"
   xmlns:inkscape="http://www.inkscape.org/namespaces/inkscape"
   xmlns:sodipodi="http://sodipodi.sourceforge.net/DTD/sodipodi-0.dtd"
   xmlns:xlink="http://www.w3.org/1999/xlink"
   xmlns="http://www.w3.org/2000/svg"
   xmlns:svg="http://www.w3.org/2000/svg"><sodipodi:namedview
     id="namedview1"
     pagecolor="#505050"
     bordercolor="#eeeeee"
     borderopacity="1"
     inkscape:showpageshadow="0"
     inkscape:pageopacity="0"
     inkscape:pagecheckerboard="0"
     inkscape:deskcolor="#505050"
     inkscape:document-units="mm"
     inkscape:zoom="1.1590678"
     inkscape:cx="444.32257"
     inkscape:cy="415.42003"
     inkscape:window-width="1920"
     inkscape:window-height="991"
     inkscape:window-x="-9"
     inkscape:window-y="-9"
     inkscape:window-maximized="1"
     inkscape:current-layer="layer1" /><defs
     id="defs1"><inkscape:path-effect
       effect="fillet_chamfer"
       id="path-effect6"
       is_visible="true"
       lpeversion="1"
       nodesatellites_param="F,0,0,1,0,0,0,1 @ F,0,0,1,0,0,0,1 @ F,0,0,1,0,0,0,1 @ F,0,0,1,0,0,0,1 @ F,0,0,1,0,0,0,1 @ F,0,0,1,0,0,0,1 @ F,0,0,1,0,0,0,1 @ F,0,0,1,0,0,0,1 @ F,0,0,1,0,0,0,1 @ F,0,0,1,0,0,0,1 @ F,0,0,1,0,21.306834,0,1 @ F,0,0,1,0,0,0,1 @ F,0,0,1,0,0,0,1 @ F,0,0,1,0,0,0,1 @ F,0,0,1,0,0,0,1"
       radius="0"
       unit="px"
       method="auto"
       mode="F"
       chamfer_steps="1"
       flexible="false"
       use_knot_distance="true"
       apply_no_radius="true"
       apply_with_radius="true"
       only_selected="false"
       hide_knots="false" /><linearGradient
       id="linearGradient4"
       inkscape:collect="always"><stop
         style="stop-color:#fbfae3;stop-opacity:0.71683673;"
         offset="0.955414"
         id="stop5" /><stop
         style="stop-color:#fbfae3;stop-opacity:0;"
         offset="1"
         id="stop6" /></linearGradient><linearGradient
       id="linearGradient2"
       inkscape:collect="always"><stop
         style="stop-color:#fafbe3;stop-opacity:0.55357139;"
         offset="0.96815288"
         id="stop3" /><stop
         style="stop-color:#fafbe3;stop-opacity:0;"
         offset="1"
         id="stop4" /></linearGradient><linearGradient
       id="linearGradient1"
       inkscape:collect="always"><stop
         style="stop-color:#f9f0ae;stop-opacity:1;"
         offset="0"
         id="stop1" /><stop
         style="stop-color:#e297a2;stop-opacity:1;"
         offset="1"
         id="stop2" /></linearGradient><radialGradient
       inkscape:collect="always"
       xlink:href="#linearGradient1"
       id="radialGradient2"
       cx="558.69281"
       cy="307.62564"
       fx="558.69281"
       fy="307.62564"
       r="561.49999"
       gradientTransform="matrix(1.0304456,-0.0016312,0.00139782,0.88302432,-17.072754,65.263936)"
       gradientUnits="userSpaceOnUse" /><radialGradient
       inkscape:collect="always"
       xlink:href="#linearGradient2"
       id="radialGradient4"
       cx="291.61108"
       cy="396.54226"
       fx="291.61108"
       fy="396.54226"
       r="151.29612"
       gradientUnits="userSpaceOnUse" /><radialGradient
       inkscape:collect="always"
       xlink:href="#linearGradient4"
       id="radialGradient6"
       cx="291.61108"
       cy="396.54226"
       fx="291.61108"
       fy="396.54226"
       r="111.03183"
       gradientUnits="userSpaceOnUse"
       gradientTransform="matrix(1.0989011,0,0,1.0989011,-28.840658,-39.218467)" /></defs><g
     inkscape:label="Layer 1"
     inkscape:groupmode="layer"
     id="layer1"><rect
       style="fill:url(#radialGradient2);stroke-width:3.40913"
       id="backgr"
       width="1123"
       height="794"
       x="0"
       y="0" /><g
       id="sun"
       transform="matrix(0.7298387,0,0,0.7298387,180.6629,88.218367)"><circle
         style="fill:url(#radialGradient4);fill-opacity:0.553571;stroke-width:4.64541"
         id="circle2"
         cx="291.61108"
         cy="396.54227"
         r="151.29613" /><circle
         style="fill:url(#radialGradient6);fill-opacity:0.716837;stroke-width:3.7463"
         id="path2"
         cx="291.61108"
         cy="396.54227"
         r="122.01301" /></g><g
       id="moutain"><path
         style="fill:#769bb7;fill-opacity:1;stroke-width:7.57884"
         d="M -54.905853,470.42913 C 1131.4304,550.02405 1131.4304,555.15921 1131.4304,555.15921 l 5.7309,-174.59531 c 0,0 -51.5471,-30.23823 -60.1764,-12.83789 -27.1825,54.81079 -127.99109,-45.45639 -125.42915,-75.04332 2.18926,-25.28304 10.37705,-35.72317 -6.38603,-32.79497 -16.76308,2.9282 -144.04121,153.67302 -167.83912,149.88504 -29.99061,-4.77369 -46.93087,-55.60924 -65.66196,-59.0543 -10.08183,-1.85427 -24.39808,72.14682 -24.39808,72.14682 -88.80363,-45.3024 -75.92116,-92.98883 -121.67762,-116.84231 -18.3581,-9.57034 -27.73348,-77.85523 -42.06787,-72.34152 -26.61207,10.2363 -16.41982,86.64267 -44.86626,119.47727 -18.42701,21.26958 -75.0773,42.81065 -75.0773,42.81065 0,0 -64.99353,-27.30835 -92.02495,-44.03078 -36.35749,-22.49181 -76.08839,-72.64763 -98.41106,-73.1866 -22.32266,-0.53897 -182.084957,55.59549 -182.084957,55.59549 z"
         id="path6"
         sodipodi:nodetypes="cccsszsscssacszcc" /><path
         style="fill:#5a86a2;fill-opacity:1;stroke-width:11.1158"
         d="m -18.301957,367.24002 2.05383,267.79543 1146.027827,3.85317 6.1614,-190.732 c 0,0 -40.6677,-43.83447 -67.7758,-42.38488 -19.3695,1.03576 -89.61238,60.9432 -102.69065,57.79757 -18.34186,-4.41166 -43.13006,-34.67854 -43.13006,-34.67854 0,0 -105.8809,76.3531 -125.28261,73.21025 -25.95316,-4.20409 -63.61269,14.35132 -78.04491,11.55952 -23.78136,-4.60032 -28.76348,-66.79939 -47.23771,-52.01779 -10.98808,8.79177 -84.47342,39.4413 -127.33644,30.82536 -30.00413,-6.03118 -59.75175,-67.42536 -71.88348,-53.9444 -12.87503,14.30692 -31.55011,31.29569 -51.34535,28.89878 -40.81176,-4.94171 -73.17047,-78.68191 -86.26015,-82.84318 -27.6203,-8.78063 -102.78882,-3.40757 -117.06737,1.92658 -18.07916,6.75395 -37.30106,-34.36111 -45.18388,-34.67854 -7.88283,-0.31745 -42.60803,21.10854 -63.6682,15.41267 -16.286612,-4.4048 -34.914841,-34.67854 -34.914841,-34.67854 -16.553111,-2.39521 -92.421606,34.67854 -92.421606,34.67854 z"
         id="path7"
         sodipodi:nodetypes="ccccsscsssssssszssc" /><path
         style="fill:#91a5cf;fill-opacity:1;stroke-width:11.1312"
         d="M -12.811369,665.68356 V 806.04289 L 1124.951,823.58783 c 0,0 40.0303,-108.61065 2.0355,-109.16838 C 966.99387,712.07093 836.15529,635.27942 701.59766,554.56574 677.33863,540.01409 605.93598,546.76799 605.93598,546.76799 424.1111,619.54691 217.862,645.53938 -12.811369,665.68356 Z"
         id="path8"
         sodipodi:nodetypes="cccsscc" /><path
         style="fill:#48597d;fill-opacity:1;stroke-width:12.1313"
         d="m -3.1400078,436.81992 c -19.1180362,1.53022 -1.5350534,191.88227 -1.5350534,191.88227 l 423.6760012,1.53505 38.37645,-19.95577 c 0,0 180.88458,7.75385 185.74198,-4.60516 6.80532,-17.31522 -26.63705,-27.27171 -47.58678,-29.16613 -19.47028,-1.76063 -53.84025,1.95367 -99.77874,-24.5609 -28.64176,-16.53131 -83.93772,-6.42895 -98.24374,-13.81552 -19.11519,-9.86967 -74.79841,-108.26286 -99.77879,-125.87478 -12.01393,-8.47019 -57.43994,52.17714 -73.68276,52.19198 -19.67387,0.0177 -103.17201,-87.65984 -128.944871,-95.17359 -24.891762,-7.25686 -75.508294,65.72282 -98.2436968,67.54255 z"
         id="path9"
         sodipodi:nodetypes="scccssssssss" /><path
         style="fill:#51658e;fill-opacity:1;stroke-width:12.0824"
         d="m -7.111435,549.06112 5.1569295,197.16912 c 0,0 267.7439355,-86.1445 185.6499355,-61.1904 -86.64796,26.33837 271.22387,6.10906 278.47497,0 10.12121,-8.52713 -36.29292,-70.66373 -72.19721,-65.26979 -9.05561,1.36044 -89.98047,-28.16935 -118.6097,-42.15338 -17.55138,-8.57302 -56.13752,2.60725 -61.88333,0 -18.50272,-8.39587 -25.61243,-48.57098 -53.28839,-58.47084 -28.24129,-10.10211 -163.303205,29.91529 -163.303205,29.91529 z"
         id="path10"
         sodipodi:nodetypes="ccssssssc" /><path
         style="fill:#4b5f84;fill-opacity:1;stroke-width:9.88111"
         d="m 667.03021,644.57969 c 16.07146,12.29875 234.19124,-7.79258 273.82167,-1.25033 20.91329,3.4524 185.04852,60.01569 185.04852,60.01569 l 1.2503,-162.54253 c 0,0 -42.5193,-5.77645 -63.7667,-8.75227 -29.1857,-4.08759 -73.44169,-20.97325 -87.52294,-12.50326 -9.22931,5.55147 -43.35653,41.69009 -53.76407,46.26209 -8.9109,3.91453 -41.4283,-15.56299 -57.51507,-5.00132 -11.29224,7.41386 -61.34937,18.31681 -67.51765,23.75621 -11.27512,9.94274 -17.85682,27.89457 -32.50851,31.25818 -4.54198,1.04271 -20.92071,-33.78187 -35.00918,-25.00653 -8.72677,5.43568 -84.34359,37.0607 -62.51637,53.76407 z"
         id="path11"
         sodipodi:nodetypes="ssccasssssss" /><path
         style="fill:#51658e;fill-opacity:1;stroke-width:10.3934"
         d="m 1149.9981,615.16037 c 19.118,1.1232 1.535,140.84367 1.535,140.84367 l -423.67591,1.12674 -38.37645,-14.64775 c 0,0 -180.88456,5.69141 -185.74196,-3.38024 -6.8053,-12.70956 63.2409,-23.67812 84.1907,-25.06864 19.4702,-1.29233 55.06034,-27.84911 71.71571,-48.53122 19.51005,-24.22697 75.39681,29.44472 89.70283,24.0229 19.11519,-7.24445 74.79841,-79.46611 99.77879,-92.39345 12.01393,-6.21722 57.43994,38.29858 73.68276,38.30947 19.67387,0.013 103.17193,-64.34327 128.94483,-69.85844 24.8918,-5.32662 75.5083,48.24126 98.2437,49.57696 z"
         id="path12"
         sodipodi:nodetypes="scccssssssss" /></g><path
       id="path13"
       style="fill:#331746;fill-opacity:1;stroke-width:1.68779"
       d="m 227.86436,168.66187 c -1.42251,-0.49861 -2.88217,-0.91642 -4.37592,-1.24863 -5.70189,-1.26812 -25.14119,7.62434 -37.33771,19.88696 -2.20325,2.21519 -3.59514,3.66592 -4.32378,4.54139 -0.28944,-1.1406 -0.8678,-2.97954 -1.78237,-5.73288 -5.45194,-16.4135 -18.88851,-33.03906 -24.55789,-34.44544 -15.84243,-3.92995 -27.21524,-3.92328 -37.75138,8.07347 -15.74051,17.92259 8.92251,-10.67492 32.17384,0.63257 16.29765,7.9258 28.23574,28.48373 31.33682,32.29013 -0.0855,0.20016 -0.0167,0.27232 0.19399,0.23598 0.49134,0.55572 0.69352,0.54799 0.5756,-0.20306 4.18502,-1.80414 24.26889,-15.17145 42.58495,-15.00003 25.85392,0.24195 37.08149,45.13142 30.97995,22.07162 -3.70128,-13.98834 -13.96514,-26.28251 -27.7161,-31.10208 z" /><path
       id="path14"
       style="fill:#331746;fill-opacity:1;stroke-width:0.786462"
       d="m 116.4702,196.53914 c -0.57746,-0.31777 -1.17452,-0.59613 -1.7901,-0.83251 -2.3498,-0.90234 -10.99681,2.74023 -16.743655,8.42341 -1.03815,1.02665 -1.69646,1.70129 -2.04666,2.11346 -0.0675,-0.59295 -0.22355,-1.55399 -0.47775,-2.9951 -1.51534,-8.59088 -6.39646,-17.65035 -8.72585,-18.62149 -6.50922,-2.71379 -11.31808,-3.22425 -16.35012,2.39879 -7.51763,8.40057 4.28617,-5.02394 13.57296,1.7753 6.50942,4.76582 10.56775,15.75678 11.69575,17.83205 -0.0458,0.0979 -0.0201,0.13768 0.0707,0.12873 0.181,0.30473 0.26683,0.30997 0.25314,-0.0772 1.85628,-0.72812 10.991135,-6.61655 18.727095,-5.70183 10.91963,1.29116 13.50675,24.62006 12.03656,12.62088 -0.89184,-7.27885 -4.63992,-13.9929 -10.22205,-17.06445 z" /><path
       id="path15"
       style="fill:#5f3474;fill-opacity:1;stroke-width:1.42226"
       d="m 901.83135,108.66125 c -1.26001,0.16073 -2.51754,0.39637 -3.76848,0.70937 -4.77503,1.19477 -16.07027,15.22711 -20.63657,29.06762 -0.82488,2.50022 -1.32665,4.11838 -1.54556,5.0529 -0.64827,-0.75037 -1.77764,-1.91801 -3.5052,-3.64794 -10.29854,-10.31263 -26.69405,-17.77378 -31.49672,-16.69546 -13.42053,3.01324 -21.98824,7.30735 -25.40359,20.3213 -5.10236,19.44225 2.69787,-11.40931 24.48387,-11.6572 15.27054,-0.17375 32.01986,10.81586 35.79228,12.51472 0.011,0.18308 0.0901,0.21151 0.23518,0.10467 0.57983,0.23347 0.72928,0.1514 0.35717,-0.3701 2.47331,-2.93787 12.56666,-20.58543 26.43377,-27.36387 19.57403,-9.5681 44.9642,20.02502 31.66959,4.94892 -8.06467,-9.14534 -20.43579,-14.53901 -32.61574,-12.98493 z" /><path
       id="path16"
       style="fill:#5f3474;fill-opacity:1;stroke-width:1.17035"
       d="m 992.8925,152.44602 c -1.06875,-0.16792 -2.15156,-0.278 -3.24559,-0.32742 -4.17608,-0.1886 -16.46366,7.93277 -23.18705,17.46051 -1.21455,1.72113 -1.97426,2.84248 -2.35484,3.50642 -0.37077,-0.7233 -1.0467,-1.87666 -2.09273,-3.59798 -6.23576,-10.26128 -18.08876,-19.74966 -22.26249,-20.03368 -11.66304,-0.79367 -19.61837,0.51194 -25.21939,9.67337 -8.36766,13.68677 4.66716,-8.10021 22.60187,-3.26159 12.57103,3.39155 23.95588,15.65924 26.68695,17.82874 -0.0307,0.14241 0.0285,0.1825 0.17054,0.13428 0.42572,0.31232 0.56603,0.28407 0.37272,-0.20052 2.66163,-1.67529 14.73994,-12.83803 27.57897,-14.81994 18.12284,-2.79757 32.60044,25.68752 24.92964,11.09288 -4.6531,-8.85326 -13.6475,-15.83216 -23.9786,-17.45509 z" /><path
       id="path17"
       style="fill:#5f3474;fill-opacity:1;stroke-width:1.05079"
       d="m 704.69047,252.57745 c 0.88504,0.12491 1.76834,0.30803 2.64701,0.55126 3.35403,0.92847 11.28792,11.83318 14.49533,22.58881 0.57941,1.94296 0.93186,3.20045 1.08562,3.92668 0.45535,-0.58313 1.24863,-1.49051 2.46209,-2.83486 7.23379,-8.01408 18.75016,-13.81223 22.1236,-12.97425 9.42671,2.34162 15.44476,5.67863 17.84373,15.79193 3.58395,15.10882 -1.89501,-8.86632 -17.19771,-9.05895 -10.72617,-0.13503 -22.49106,8.40514 -25.14085,9.72534 -0.008,0.14227 -0.0633,0.16437 -0.16519,0.0813 -0.40728,0.18143 -0.51225,0.11766 -0.25088,-0.28761 -1.73728,-2.28305 -8.82694,-15.99719 -18.56734,-21.2648 -13.74899,-7.43549 -31.58329,15.56169 -22.24503,3.84586 5.6647,-7.10695 14.3543,-11.29844 22.90962,-10.09075 z" /><path
       id="path18"
       style="fill:#5f3474;fill-opacity:1;stroke-width:0.864675"
       d="m 640.72822,286.60314 c 0.7507,-0.13049 1.51128,-0.21603 2.27974,-0.25444 2.93331,-0.14656 11.56423,6.16466 16.28681,13.56878 0.85311,1.33751 1.38674,2.20893 1.65406,2.72489 0.26043,-0.56209 0.73521,-1.45838 1.46995,-2.79604 4.38006,-7.97417 12.70573,-15.34771 15.6374,-15.56842 8.19223,-0.61677 13.78013,0.39783 17.71434,7.51729 5.87753,10.63616 -3.27826,-6.29477 -15.87577,-2.53462 -8.83002,2.63562 -16.82685,12.16899 -18.74518,13.85494 0.0216,0.11067 -0.02,0.14182 -0.11979,0.10435 -0.29903,0.24271 -0.39758,0.22075 -0.2618,-0.15583 -1.86956,-1.30189 -10.35348,-9.97659 -19.37174,-11.51676 -12.72966,-2.17402 -22.89887,19.96209 -17.51082,8.62042 3.26838,-6.87998 9.58613,-12.30337 16.8428,-13.56457 z" /><path
       id="path19"
       style="fill:#5f3474;fill-opacity:1;stroke-width:0.598902"
       d="m 720.97086,428.7969 c 0.50721,0.0708 1.01343,0.17461 1.51698,0.31248 1.92216,0.52628 6.46901,6.70745 8.30715,12.80409 0.33206,1.10134 0.53404,1.81413 0.62216,2.22578 0.26095,-0.33054 0.71558,-0.84487 1.411,-1.60689 4.14562,-4.54266 10.74555,-7.82924 12.67885,-7.35424 5.40236,1.3273 8.85125,3.21883 10.22609,8.95139 2.05392,8.56419 -1.08602,-5.02573 -9.85586,-5.13492 -6.14708,-0.0765 -12.88944,4.76432 -14.40801,5.51265 -0.004,0.0806 -0.0363,0.0932 -0.0947,0.0461 -0.2334,0.10284 -0.29357,0.0667 -0.14377,-0.16304 -0.99563,-1.2941 -5.05865,-9.06774 -10.64079,-12.05359 -7.87943,-4.21469 -18.10011,8.82088 -12.74843,2.17996 3.24638,-4.02846 8.22633,-6.40434 13.1293,-5.71978 z" /><path
       id="path20"
       style="fill:#5f3474;fill-opacity:1;stroke-width:0.483984"
       d="m 693.30167,449.21056 c 0.41761,-0.0735 0.84072,-0.12167 1.26821,-0.1433 1.63177,-0.0825 6.4331,3.47185 9.06024,7.64175 0.47459,0.75326 0.77143,1.24403 0.92015,1.53462 0.14487,-0.31657 0.40899,-0.82135 0.81772,-1.5747 2.4366,-4.49094 7.06811,-8.64361 8.69898,-8.76791 4.55729,-0.34735 7.6658,0.22406 9.85437,4.23363 3.26964,5.99013 -1.82367,-3.54512 -8.83158,-1.42746 -4.91208,1.48434 -9.36067,6.8534 -10.42783,7.8029 0.0121,0.0623 -0.0112,0.0799 -0.0666,0.0588 -0.16634,0.13669 -0.22117,0.12433 -0.14563,-0.0878 -1.04003,-0.7332 -5.75958,-5.61867 -10.77637,-6.48607 -7.08143,-1.22437 -12.7385,11.24236 -9.74116,4.8549 1.81818,-3.87471 5.3327,-6.92909 9.36954,-7.63938 z" /><path
       id="path21"
       style="fill:#5f3474;fill-opacity:1;stroke-width:0.497384"
       d="m 735.09114,456.60968 c 0.4176,-0.0776 0.84072,-0.1285 1.2682,-0.15134 1.63178,-0.0872 6.43311,3.66676 9.06025,8.07077 0.47458,0.79555 0.77143,1.31388 0.92014,1.62077 0.14487,-0.33433 0.40899,-0.86745 0.81772,-1.6631 2.4366,-4.74307 7.06812,-9.12888 8.69898,-9.26016 4.55729,-0.36685 7.66581,0.23664 9.85438,4.47132 3.26963,6.32643 -1.82367,-3.74415 -8.83159,-1.5076 -4.91208,1.56767 -9.36067,7.23816 -10.42782,8.24097 0.0121,0.0659 -0.0112,0.0844 -0.0666,0.0621 -0.16635,0.14436 -0.22117,0.13131 -0.14564,-0.0927 -1.04002,-0.77437 -5.75957,-5.93412 -10.77637,-6.85021 -7.08143,-1.29311 -12.73849,11.87353 -9.74115,5.12746 1.81817,-4.09224 5.33269,-7.3181 9.36953,-8.06826 z" /><path
       style="fill:#1e1713;fill-opacity:1;stroke:none;stroke-width:6.0249;stroke-opacity:1"
       d="m -39.411999,531.09637 c 0,0 106.111805,10.29586 159.319949,10.60495 30.43463,0.17676 186.39394,86.51415 186.39394,86.51415 0,0 139.38912,2.77222 168.17104,13.9539 57.96504,22.51919 136.93186,138.98078 136.93186,138.98078 0,0 -119.08455,-107.63621 -150.33506,-111.39665 -91.48516,-11.00868 -180.84574,7.04988 -200.21484,-6.11077 C 151.51344,589.3489 112.93064,593.92101 8.4881163,574.63251 -12.140896,570.82272 -39.411999,531.09637 -39.411999,531.09637 Z"
       id="path22"
       sodipodi:nodetypes="cscscsssc" /><path
       style="fill:#1e1713;fill-opacity:1;stroke:none;stroke-width:4.87514;stroke-opacity:1"
       d="m 44.874633,569.71062 c 0,0 72.476917,-47.4927 105.838377,-74.00648 19.08246,-15.16571 169.33907,-45.36857 169.33907,-45.36857 0,0 88.60218,-68.36662 113.41328,-76.5831 49.96806,-16.54753 170.72684,8.61734 170.72684,8.61734 0,0 -140.34905,-0.13628 -162.14119,13.44556 -63.796,39.76051 -108.41498,94.621 -128.57328,97.01606 -113.79667,13.52039 -135.04229,35.4137 -212.00165,77.068 -15.200662,8.22736 -56.601447,-0.18881 -56.601447,-0.18881 z"
       id="path23"
       sodipodi:nodetypes="cscscsssc" /><path
       style="fill:#1e1713;fill-opacity:1;stroke:none;stroke-width:2.53541;stroke-opacity:1"
       d="m 105.82664,538.75322 c 0,0 16.63136,-45.1056 23.08389,-68.08939 3.69078,-13.14654 55.81837,-74.0678 55.81837,-74.0678 0,0 17.66666,-60.06241 25.43929,-71.66386 15.65361,-23.36462 70.33008,-48.7212 70.33008,-48.7212 0,0 -56.01975,43.36941 -61.20091,56.5983 -15.16775,38.72728 -18.78177,78.72937 -26.20356,86.1114 -41.89719,41.67263 -44.71141,58.70078 -64.64032,102.40599 -3.93627,8.63244 -22.62684,17.42656 -22.62684,17.42656 z"
       id="path24"
       sodipodi:nodetypes="cscscsssc" /><path
       style="fill:#1e1713;fill-opacity:1;stroke:none;stroke-width:1.4319;stroke-opacity:1"
       d="m 122.34355,496.42353 c 0,0 2.0212,-34.17547 2.18162,-51.28064 0.0918,-9.784 15.57753,-60.47771 15.57753,-60.47771 0,0 0.76519,-44.82308 2.78788,-54.14754 4.07359,-18.77888 24.70051,-44.92048 24.70051,-44.92048 0,0 -19.15575,38.97949 -19.879,49.0491 -2.11732,29.47857 0.87848,58.08483 -1.47327,64.39654 -13.27601,35.63049 -12.54935,48.00271 -16.14778,81.70021 -0.71076,6.65576 -7.74749,15.68052 -7.74749,15.68052 z"
       id="path25"
       sodipodi:nodetypes="cscscsssc" /><path
       style="fill:#1e1713;fill-opacity:1;stroke:none;stroke-width:1.23414;stroke-opacity:1"
       d="m 148.63393,441.0371 c 0,0 5.5307,-23.54143 7.41085,-35.45161 1.07542,-6.81251 22.30695,-39.86265 22.30695,-39.86265 0,0 5.28656,-31.15828 8.33041,-37.36106 6.13012,-12.49201 30.26663,-27.64249 30.26663,-27.64249 0,0 -23.88722,24.32768 -25.65004,31.24492 -5.16066,20.25004 -4.89975,40.65703 -7.98522,44.70856 -17.41788,22.87146 -17.89867,31.6123 -25.02694,54.58411 -1.40795,4.53727 -9.65264,9.78022 -9.65264,9.78022 z"
       id="path26"
       sodipodi:nodetypes="cscscsssc" /><path
       id="path27"
       style="fill:#1e1713;fill-opacity:1;stroke:none;stroke-width:1.4319;stroke-opacity:1"
       d="m 364.50587,308.40235 c 0,0 -11.74972,41.81351 -17.93164,49.79492 -18.09746,23.36547 -44.90408,26.10323 -47.36524,32.37305 -4.59692,11.71077 -9.39096,22.98727 -14.45703,33.84571 0.1056,0.0423 0.20757,0.0912 0.3125,0.13476 0.32121,-0.8236 0.6417,-1.64734 0.93359,-2.48047 0.79207,-2.2197 1.74813,-4.35088 2.98243,-6.35937 1.07918,-1.57733 1.88701,-3.30311 2.90429,-4.91992 0.69472,-1.21514 1.40767,-2.39567 2.23633,-3.5254 1.57861,-2.1521 3.37667,-3.08812 4.9375,-3.1582 0.56279,-0.0253 1.07381,0.0976 1.55274,0.28125 0.0467,-0.0185 0.0871,-0.0382 0.13476,-0.0566 0.26894,-0.55908 0.49718,-1.13022 0.59961,-1.72656 -0.008,-0.6421 0.0108,0.92097 0.0625,1.04883 0.053,0.13108 0.11256,0.2546 0.17188,0.3789 1.16276,-0.40093 2.46649,-0.78316 3.53906,-1.16797 0.0834,-0.11451 0.15711,-0.23166 0.24219,-0.3457 0.42447,-0.56898 0.92024,-1.13164 1.38476,-1.69726 -0.30657,-0.18089 -0.74791,-0.36766 -1.35351,-0.5625 -0.60648,-0.19512 -1.18376,-0.52954 -1.81836,-0.58594 -0.27744,-0.0246 -1.44997,0.10171 -2.07227,0.49414 -0.086,0.10285 -0.17181,0.20574 -0.25781,0.30859 -0.0337,0.0251 -0.11665,0.11341 -0.10156,0.0742 0.0577,-0.15009 0.1889,-0.27531 0.35937,-0.38281 0.0593,-0.0709 0.11842,-0.14196 0.17773,-0.21289 0.16123,-0.14939 1.38864,-1.4083 1.82032,-1.4043 1.57091,0.0151 3.24646,-0.0807 4.68359,0.54883 14.07835,-15.76056 41.89442,-29.94228 46.29492,-37.67969 9.4996,-16.70314 10.02735,-53.01758 10.02735,-53.01758 z m -95.05274,145.81446 c -0.71962,1.27241 -1.42674,2.55995 -2.1582,3.81836 0.51663,-0.62064 1.05372,-1.22497 1.58398,-1.83399 0.16568,-0.67133 0.35836,-1.33139 0.57422,-1.98437 z m -4.61133,7.95312 c -4.727,7.88678 -9.69572,15.49967 -14.96875,22.81836 -3.91278,5.43085 7.6211,10.61328 7.6211,10.61328 0,0 9.25883,-15.30535 17.79101,-29.66601 -0.75636,-0.23541 -1.38097,-0.72867 -1.8125,-1.40625 -0.17197,0.0739 -0.3446,0.13524 -0.51758,0.17969 -0.11729,0.13533 -0.23641,0.26904 -0.3496,0.4082 -4.5281,5.56659 -9.37474,2.28952 -7.76368,-2.94727 z" /><path
       style="fill:#1e1713;fill-opacity:1;stroke:none;stroke-width:1.4319;stroke-opacity:1"
       d="m 232.72098,477.59135 c 0,0 19.8621,-31.84571 29.27829,-46.12674 10.53981,-15.98517 24.70137,-23.61684 32.1578,-38.61684 9.50256,-19.11615 9.22156,-54.42824 14.49157,-62.3821 10.61348,-16.01857 42.77494,-32.88763 42.77494,-32.88763 0,0 -32.00054,29.36509 -36.33031,38.48503 -12.67532,26.69842 -3.01445,51.85212 -7.49726,56.87933 -25.30611,28.3793 -46.37614,56.56363 -61.96322,86.65537 -3.0787,5.94356 -12.91181,-2.00642 -12.91181,-2.00642 z"
       id="path28"
       sodipodi:nodetypes="csascsssc" /><path
       style="fill:#1e1713;fill-opacity:1;stroke:none;stroke-width:2.53541;stroke-opacity:1"
       d="m 364.10817,651.82144 c 0,0 44.16233,-16.07736 63.30556,-30.34013 10.94975,-8.1582 69.37746,7.18551 93.74317,-14.22568 17.27413,-15.17951 50.66325,-42.82028 63.90233,-47.2626 26.66272,-8.94654 81.13272,5.21797 81.13272,5.21797 0,0 -65.66903,-3.30736 -77.84939,4.00609 -35.65779,21.40994 -51.72781,52.60928 -62.11283,53.92415 -58.62497,7.42259 -91.09401,6.24867 -133.56181,28.69399 -8.38804,4.43329 -28.55975,-0.0138 -28.55975,-0.0138 z"
       id="path33"
       sodipodi:nodetypes="cssscssscc" /><path
       style="fill:#1e1713;fill-opacity:1;stroke:none;stroke-width:1.4319;stroke-opacity:1"
       d="m 399.48725,661.27607 c 0,0 18.43102,-28.8504 26.9128,-43.70543 4.85154,-8.49693 43.09294,-45.2019 43.09294,-45.2019 0,0 22.52703,-38.75858 28.84018,-45.91266 12.71431,-14.40788 43.4707,-27.171 43.4707,-27.171 0,0 -35.73272,24.68839 -41.27481,33.12672 -16.22438,24.70301 -27.55946,51.138 -32.69066,55.5014 -28.96633,24.63201 -34.36554,35.78766 -53.94041,63.45161 -3.86635,5.46403 -14.41074,9.91126 -14.41074,9.91126 z"
       id="path34"
       sodipodi:nodetypes="cscscsssc" /><path
       style="fill:#1e1713;fill-opacity:1;stroke:none;stroke-width:1.4319;stroke-opacity:1"
       d="m 318.3876,654.37397 c 0,0 12.2692,-34.86363 26.9128,-43.70543 16.93021,-10.22245 43.09294,-24.49561 43.09294,-24.49561 0,0 22.52703,-59.46487 28.84018,-66.61895 12.71431,-14.40788 43.4707,-27.171 43.4707,-27.171 0,0 -35.73272,24.68839 -41.27481,33.12672 -16.22438,24.70301 -13.75526,58.90286 -18.88646,63.26626 -28.96633,24.63201 -48.16974,28.0228 -67.74461,55.68675 -3.86635,5.46403 -14.41074,9.91126 -14.41074,9.91126 z"
       id="path35"
       sodipodi:nodetypes="cscscsssc" /><path
       style="fill:#1e1713;fill-opacity:1;stroke:none;stroke-width:1.4319;stroke-opacity:1"
       d="m 311.90859,664.15223 c 0,0 3.36152,-36.80634 15.39518,-48.96379 13.91272,-14.05584 35.78548,-34.29921 35.78548,-34.29921 0,0 7.28503,-63.17013 11.65483,-71.65197 8.80053,-17.0819 35.49683,-36.98568 35.49683,-36.98568 0,0 -28.602,32.68439 -31.90983,42.22266 -9.68362,27.92305 1.08228,60.47795 -2.82467,65.96468 -22.05528,30.97336 -39.84438,38.96185 -52.05174,70.57594 -2.41115,6.24424 -11.54608,13.13737 -11.54608,13.13737 z"
       id="path36"
       sodipodi:nodetypes="cscscsssc" /><path
       style="fill:#1e1713;fill-opacity:1;stroke:none;stroke-width:0.863873;stroke-opacity:1"
       d="m 441.32293,381.1662 c 0,0 2.68316,-16.78364 12.28842,-22.32742 11.10512,-6.40944 28.56395,-15.64039 28.56395,-15.64039 0,0 5.8149,-28.80548 9.30287,-32.67319 7.02458,-7.78932 28.33355,-16.86541 28.33355,-16.86541 0,0 -22.8301,14.90403 -25.47041,19.25347 -7.72945,12.73287 0.86388,27.57785 -2.25465,30.07979 -17.6045,14.12381 -31.80375,17.76655 -41.54766,32.18253 -1.92458,2.84736 -9.21607,5.99062 -9.21607,5.99062 z"
       id="path37"
       sodipodi:nodetypes="cscscsssc" /></g></svg>
